<svg style="display:none" xmlns="http://www.w3.org/2000/svg">
        <symbol id="close" viewbox="0 0 30 30">
            <path d="M15 0c-8.3 0-15 6.7-15 15s6.7 15 15 15 15-6.7 15-15-6.7-15-15-15zm5.7 19.3c.4.4.4 1 0 1.4-.2.2-.4.3-.7.3s-.5-.1-.7-.3l-4.3-4.3-4.3 4.3c-.2.2-.4.3-.7.3s-.5-.1-.7-.3c-.4-.4-.4-1 0-1.4l4.3-4.3-4.3-4.3c-.4-.4-.4-1 0-1.4s1-.4 1.4 0l4.3 4.3 4.3-4.3c.4-.4 1-.4 1.4 0s.4 1 0 1.4l-4.3 4.3 4.3 4.3z"></path>
        </symbol>
        <symbol id="menu" viewbox="0 0 22 22">
            <path d="M1 5h20c.6 0 1-.4 1-1s-.4-1-1-1h-20c-.6 0-1 .4-1 1s.4 1 1 1zm20 5h-20c-.6 0-1 .4-1 1s.4 1 1 1h20c.6 0 1-.4 1-1s-.4-1-1-1zm0 7h-20c-.6 0-1 .4-1 1s.4 1 1 1h20c.6 0 1-.4 1-1s-.4-1-1-1z"></path>
        </symbol>
        <symbol id="share" viewbox="0 0 22 22">
            <path d="M21 10c-.6 0-1 .4-1 1v7h-18v-7c0-.6-.4-1-1-1s-1 .4-1 1v7c0 1.1.9 2 2 2h18c1.1 0 2-.9 2-2v-7c0-.6-.4-1-1-1zM5.5 7.5c.3 0 .5-.1.7-.3l3.8-3.8v9.6c0 .6.4 1 1 1s1-.4 1-1v-9.6l3.8 3.8c.2.2.5.3.7.3s.5-.1.7-.3c.4-.4.4-1 0-1.4l-5.5-5.5c-.1-.1-.2-.2-.3-.2-.2-.1-.5-.1-.8 0l-.3.2-5.5 5.5c-.4.4-.4 1 0 1.4.2.2.4.3.7.3z"></path>
        </symbol>
        <symbol id="facebook" viewbox="0 0 24 24">
            <path d="M17.4 12h-3.2v12h-4.4v-12h-2.9v-4.1h2.9v-2.4c0-3.5.9-5.5 4.8-5.5h3.2v4.1h-2c-1.5 0-1.6.6-1.6 1.7v2.1h3.6l-.4 4.1z"></path>
        </symbol>
        <symbol id="twitter" viewbox="0 1 24 23">
            <path d="M21.5 7.6v.6c0 6.6-5 14.1-14 14.1-2.8 0-5.4-.8-7.6-2.2l1.2.1c2.3 0 4.4-.8 6.1-2.1-2.2 0-4-1.5-4.6-3.4.3.1.6.1.9.1.5 0 .9-.1 1.3-.2-2.1-.6-3.8-2.6-3.8-5 .7.4 1.4.6 2.2.6-1.3-.9-2.2-2.4-2.2-4.1 0-.9.2-1.8.7-2.5 2.4 3 6.1 5 10.2 5.2-.1-.4-.1-.7-.1-1.1 0-2.7 2.2-5 4.9-5 1.4 0 2.7.6 3.6 1.6 1-.3 2.1-.7 3-1.3-.4 1.2-1.1 2.1-2.2 2.7 1-.1 1.9-.4 2.8-.8-.6 1.1-1.4 2-2.4 2.7z"></path>
        </symbol>
        <symbol id="pinterest" viewbox="0 0 24 24">
            <path d="M5.9 13.9c1.2-2-.4-2.5-.6-4-1-6.1 7.1-10.2 11.4-6 2.9 2.9 1 12-3.7 11-4.6-.9 2.2-8.1-1.4-9.5-3-1.1-4.6 3.6-3.2 5.9-.8 4-2.5 7.7-1.8 12.7 2.3-1.7 3.1-4.8 3.7-8.1 1.2.7 1.8 1.4 3.3 1.5 5.5.4 8.6-5.4 7.8-10.7-.7-4.7-5.5-7.1-10.6-6.6-4.1.4-8.1 3.7-8.3 8.3-.1 2.8.7 4.9 3.4 5.5z"></path>
        </symbol>
        <symbol id="googlePlus" viewbox="0 0 24 24">
            <path d="M14.9 18.1c0-2.2-1.3-3.2-2.6-4.4l-1.1-.9c-.3-.3-.8-.7-.8-1.4s.5-1.1.9-1.5c1.3-1 2.6-2.1 2.6-4.5s-1.5-3.7-2.2-4.3h2l2-1.1h-6.5c-1.7 0-3.8.3-5.6 1.7-1.4 1.2-2 2.8-2 4.2 0 2.5 1.9 4.9 5.2 4.9.3 0 .7 0 1-.1-.2.4-.3.7-.3 1.2 0 1 .5 1.6.9 2.1-1.4.1-4.1.3-6 1.4s-2.4 2.7-2.4 3.8c0 2.3 2.2 4.5 6.8 4.5 5.2.4 8.1-2.6 8.1-5.6zm-6.8-8c-2.7 0-3.9-3.5-3.9-5.6 0-.8.2-1.7.7-2.3.5-.6 1.4-1 2.2-1 2.6 0 4 3.5 4 5.8 0 .6-.1 1.6-.8 2.3-.6.4-1.4.8-2.2.8zm0 12.7c-3.4 0-5.5-1.6-5.5-3.8 0-2.2 2-3 2.7-3.2 1.3-.4 3-.5 3.3-.5h.7c2.4 1.7 3.4 2.6 3.4 4.2 0 1.8-1.6 3.3-4.6 3.3zm7-10.8h3.4v3.4h1.8v-3.4h3.4v-1.7h-3.4v-3.4h-1.8v3.4h-3.4v1.7z"></path>
        </symbol>
        <symbol id="instagram" viewbox="0 0 26 26">
            <path d="M20,7c-0.551,0-1-0.449-1-1V4c0-0.551,0.449-1,1-1h2c0.551,0,1,0.449,1,1v2c0,0.551-0.449,1-1,1H20z"></path>
            <path d="M13,9.188c-0.726,0-1.396,0.213-1.973,0.563c0.18-0.056,0.367-0.093,0.564-0.093   c1.068,0,1.933,0.865,1.933,1.934c0,1.066-0.865,1.933-1.933,1.933s-1.933-0.866-1.933-1.933c0-0.199,0.039-0.386,0.094-0.565   C9.4,11.604,9.188,12.274,9.188,13c0,2.107,1.705,3.813,3.813,3.813c2.105,0,3.813-1.705,3.813-3.813S15.105,9.188,13,9.188z"></path>
            <path d="M13,7c3.313,0,6,2.686,6,6s-2.688,6-6,6c-3.313,0-6-2.686-6-6S9.687,7,13,7 M13,5    c-4.411,0-8,3.589-8,8s3.589,8,8,8s8-3.589,8-8S17.411,5,13,5L13,5z"></path>
            <path d="M21.125,0H4.875C2.182,0,0,2.182,0,4.875v16.25C0,23.818,2.182,26,4.875,26h16.25   C23.818,26,26,23.818,26,21.125V4.875C26,2.182,23.818,0,21.125,0z M24,9h-6.537C18.416,10.063,19,11.461,19,13   c0,3.314-2.688,6-6,6c-3.313,0-6-2.686-6-6c0-1.539,0.584-2.938,1.537-4H2V4.875C2,3.29,3.29,2,4.875,2h16.25   C22.711,2,24,3.29,24,4.875V9z"></path>
        </symbol>
        <symbol id="tumblr" viewbox="0 0 22 22">
            <path d="M12.573,4.94V0H9.385c-0.072,0.183-0.11,0.4-0.11,0.622C9.241,0.729,9.203,0.806,9.203,0.915   c-0.328,1.829-1.28,3.11-2.892,3.807C5.835,4.94,5.397,4.975,4.921,4.94v3.987h2.342c0.039,5.603,0.039,8.493,0.039,8.64   c0,0.11,0,0.22,0,0.332c0.294,2.449,1.573,3.914,3.843,4.463c0.914,0.257,1.901,0.366,2.892,0.366   c1.279-0.036,2.525-0.256,3.771-0.659v-4.685c-0.731,0.22-1.395,0.402-1.977,0.583c-1.135,0.333-2.087,0.113-2.857-0.619   c-0.073-0.11-0.183-0.257-0.221-0.403c-0.106-0.586-0.178-1.206-0.178-1.795V8.928h5.083V4.94H12.573z"></path>
        </symbol>
        <symbol id="arrow-down" viewbox="0 0 90 36">
            <path d="M43.6,51.1c-1.9,0-3.8-0.7-5.3-2.2L2.2,12.8c-2.9-2.9-2.9-7.7,0-10.6c2.9-2.9,7.7-2.9,10.6,0L43.6,33L74.4,2.2 c2.9-2.9,7.7-2.9,10.6,0c2.9,2.9,2.9,7.7,0,10.6L48.9,48.9C47.4,50.3,45.5,51.1,43.6,51.1z"/>
        </symbol>
        <symbol id="arrow-up" viewbox="0 0 24 24">
            <path d="M11.9 5.9c.2 0 .5.1.7.3l11 10c.4.4.4 1 .1 1.4-.4.4-1 .4-1.4.1l-10.4-9.4-10.3 9.4c-.4.4-1 .3-1.4-.1-.4-.4-.3-1 .1-1.4l11-10c.1-.2.4-.3.6-.3z"></path>
        </symbol>
        <symbol id="arrow-left" viewbox="0 0 31 72">
            <path d="M30 72c-.3 0-.6-.1-.8-.4l-29-34c-.3-.4-.3-.9 0-1.3l29-36c.3-.4 1-.5 1.4-.2.4.3.5 1 .2 1.4l-28.5 35.5 28.5 33.4c.4.4.3 1.1-.1 1.4-.2.1-.5.2-.7.2z"></path>
        </symbol>
        <symbol id="arrow-right" viewbox="0 0 31 72">
            <path d="M1 0c.3 0 .6.1.8.4l29 34c.3.4.3.9 0 1.3l-29 36c-.3.4-1 .5-1.4.2-.4-.3-.5-1-.2-1.4l28.5-35.5-28.5-33.4c-.4-.4-.3-1.1.1-1.4.2-.1.5-.2.7-.2z"></path>
        </symbol>
        <symbol id="fb-like" viewbox="0 0 20 20">
            <path d="M0 8v12h5v-12h-5zm2.5 10.8c-.4 0-.8-.3-.8-.8 0-.4.3-.8.8-.8s.8.3.8.8c0 .4-.4.8-.8.8zm3.5-.8h9.5c1.1 0 1.7-1 1.7-1.7 0-.3-.4-1-.4-1 1.4-.3 1.7-1.2 1.7-1.7-.1-.5-.3-.9-.5-1 1-.4 1.5-1.1 1.4-1.9-.1-.8-1-1.5-1-1.5 1-.6.9-1.5.9-1.5-.3-1.3-1.5-1.7-1.7-1.7h-5.6s.3-.5.3-2.4-1.3-3.6-2.6-3.6c0 0-.7.1-1 .3v3.5l-2.7 4.4v9.8z"></path>
        </symbol>
        <symbol id="login" viewbox="0 0 22 22">
            <path d="M13 2c0 .6.4 1 1 1h6v16h-6c-.6 0-1 .4-1 1s.4 1 1 1h6c1.1 0 2-.9 2-2v-16c0-1.1-.9-2-2-2h-6c-.6 0-1 .4-1 1zm-6.5 3.5c0 .3.1.5.3.7l3.8 3.8h-9.6c-.6 0-1 .4-1 1s.4 1 1 1h9.6l-3.8 3.8c-.2.2-.3.5-.3.7s.1.5.3.7c.4.4 1 .4 1.4 0l5.5-5.5c.1-.1.2-.2.2-.3.1-.2.1-.5 0-.8l-.2-.3-5.5-5.5c-.4-.4-1-.4-1.4 0-.2.2-.3.4-.3.7z"></path>
        </symbol>
        <symbol id="drop-down" viewbox="0 0 16 16">
            <polyline fill="none" points="1,5 8,12 15,5" stroke-linecap="round" stroke-linejoin="round" stroke-miterlimit="10" stroke-width="2"></polyline>
        </symbol>
    </svg>