<?xml version="1.0" encoding="utf-8"?>
<!-- Generator: Adobe Illustrator 16.0.0, SVG Export Plug-In . SVG Version: 6.00 Build 0)  -->
<!DOCTYPE svg PUBLIC "-//W3C//DTD SVG 1.1//EN" "http://www.w3.org/Graphics/SVG/1.1/DTD/svg11.dtd">
<svg version="1.1" id="Layer_1" xmlns="http://www.w3.org/2000/svg" xmlns:xlink="http://www.w3.org/1999/xlink" x="0px" y="0px"
	 width="366.218px" height="124.863px" viewBox="0 0 366.218 124.863" enable-background="new 0 0 366.218 124.863"
	 xml:space="preserve">
<g>
	<g id="logo__x28_homescreen_6_">
		<g>
			<path fill="#09090F" d="M125.24,112.311c-0.736,0-1.434,0.279-1.977,0.788c-0.223,0.225-5.853,5.934-12.961,5.934
				c-7.501,0-11.151-5.366-11.151-16.392V50.547h23.408c1.479,0,2.7-1.218,2.7-2.72s-1.221-2.72-2.725-2.72H99.152l0.005-41.796
				C99.157,1.478,97.68,0,95.855,0c-1.82,0-3.297,1.478-3.297,3.297l-0.015,41.811H79.651c-1.504,0-2.727,1.213-2.727,2.715
				c0,1.507,1.223,2.725,2.727,2.725h12.892v52.289c0,13.996,6.475,22.028,17.76,22.028c8.979,0,13.426-3.629,16.889-7.543
				c0.609-0.587,0.927-1.326,0.927-2.123C128.119,113.603,126.832,112.311,125.24,112.311z"/>
		</g>
		<g>
			<path fill="#09090F" d="M363.469,110.638c-0.759,0-1.463,0.313-1.986,0.88l-0.348,0.367v-0.01
				c-2.72,3.009-6.275,5.958-11.857,5.958c-5.043,0-10.425-4.28-10.562-16.255h-0.01l-0.015-0.489V73.343
				c0-18.775-10.488-29.982-28.05-29.982c-13.07,0-24.339,5.787-30.904,15.889c-0.416,0.543-0.621,1.14-0.621,1.776
				c0,1.57,1.296,2.857,2.876,2.857c1.059,0,2.035-0.573,2.529-1.512l0.03-0.039c6.104-8.977,14.572-13.335,25.895-13.335
				c6.907,0,12.229,1.942,15.801,5.777c3.869,4.153,5.836,10.659,5.836,19.342v4.359h-28.424c-20.991,0-28.436,12.18-28.436,22.615
				c0,7.616,2.693,13.575,7.988,17.713c5.085,3.967,12.484,6.061,21.417,6.061c13.313,0,23.292-7.382,28.184-14.299l0.587-0.836
				l0.27,0.983c2.191,8.125,7.724,12.606,15.57,12.606c8.526,0,12.758-3.747,16.069-7.783l0.039-0.049
				c0.558-0.538,0.871-1.262,0.871-2.04C366.218,111.9,364.98,110.638,363.469,110.638z M332.083,98.565
				c0,5.841-2.97,11.163-8.355,14.969c-4.936,3.493-11.608,5.498-18.327,5.498c-15.634,0-23.569-6.11-23.569-18.139
				c0-10.914,8.311-17.166,22.796-17.166h27.456V98.565z"/>
		</g>
		<g>
			<path fill="#09090F" d="M32.394,79.433c-15.798-4.745-20.722-7.724-20.722-17.15c0-7.944,6.822-13.286,16.972-13.286
				c10.324,0,16.243,6.173,19.401,11.368l0.027,0.049c0.068,0.142,0.264,0.464,0.379,0.626c0.543,0.719,1.399,1.135,2.316,1.135
				c1.624,0,2.945-1.321,2.945-2.94c0-0.616-0.2-1.208-0.558-1.712l-0.024-0.044c-5.396-9.363-13.633-14.118-24.486-14.118
				c-13.218,0-23.182,8.302-23.182,19.308c0,14.088,11.397,18.56,24.099,22.243c14.636,4.549,22.268,7.44,22.268,18.505
				c0,9.48-7.957,15.615-20.271,15.615c-12.049,0-20.661-5.405-25.599-16.06l-0.059-0.108c-0.545-1.022-1.604-1.658-2.766-1.658
				c-1.727,0-3.133,1.404-3.133,3.131c0,0.519,0.132,1.037,0.376,1.487c5.244,11.94,16.894,19.039,31.181,19.039
				c16.329,0,26.878-8.497,26.878-21.636C58.435,88.415,45.569,83.347,32.394,79.433z"/>
		</g>
		<g>
			<g>
				<path fill="#09090F" d="M238.177,2.593c-2.867,0-5.926,2.382-5.926,5.919c0,3.708,3.016,5.919,5.926,5.919
					c2.906,0,5.914-2.211,5.914-5.919C244.091,5.65,241.719,2.593,238.177,2.593z"/>
			</g>
			<g>
				<path fill="#09090F" d="M241.464,42.715c-0.168-1.698-1.59-2.974-3.287-2.974c-1.825,0-3.305,1.477-3.305,3.302
					c0,0.245,0.025,0.489,0.081,0.734l0.01,0.103v76.89l-0.01,0.054c-0.056,0.25-0.081,0.499-0.081,0.739
					c0,1.82,1.48,3.302,3.305,3.302c1.717,0,3.165-1.35,3.292-3.072l0.022-0.436h0.081v-78.21h-0.074L241.464,42.715z"/>
			</g>
		</g>
		<g>
			<path fill="#09090F" d="M203.736,45.606c-0.051-0.024-7.137-4.021-13.851-4.021h-0.24c-10.344,0.151-18.386,6.242-22.646,17.16
				l-0.957,2.46l0.22-18.061l0,0l0.007-0.538c0-1.814-1.482-3.292-3.304-3.292c-1.825,0-3.307,1.478-3.307,3.302v79.057l0.017,0.118
				c0.118,1.722,1.565,3.072,3.29,3.072c1.724,0,3.165-1.35,3.29-3.072l0.015-0.176V76.811c0-9.045,2.368-16.607,6.854-21.876
				c4.033-4.716,9.554-7.318,15.553-7.318c4.662,0,8.363,0.969,11.312,2.955l0.046,0.04c0.147,0.117,0.303,0.229,0.47,0.333
				l0.046,0.024c0.458,0.259,0.986,0.396,1.504,0.396c1.722,0,3.126-1.404,3.126-3.13C205.182,47.172,204.639,46.184,203.736,45.606
				z"/>
		</g>
	</g>
</g>
</svg>
